<svg xmlns="http://www.w3.org/2000/svg" width="120" height="120" fill="none"><circle cx="60" cy="59.001" r="31.21" stroke="#EADDD5" stroke-width="2"/><path stroke="#EADDD5" stroke-linecap="round" stroke-width="2" d="M26 59h8.947m50.105 0H94M60 25v8.947m0 50.106V93"/><path stroke="url(#a)" stroke-linecap="round" stroke-width="2" d="M43.086 61.16h8.457"/><path stroke="url(#b)" stroke-linecap="round" stroke-width="2" d="M76.914 61.16h-8.457"/><path stroke="url(#c)" stroke-linecap="round" stroke-width="2" d="m45.482 71.72 7.314-5.486"/><path stroke="url(#d)" stroke-linecap="round" stroke-width="2" d="m75.178 71.72-7.314-5.486"/><path stroke="url(#e)" stroke-linecap="round" stroke-width="2" d="m44.73 50.576 8.3 4.76"/><path stroke="url(#f)" stroke-linecap="round" stroke-width="2" d="m76.073 50.576-8.3 4.76"/><path fill="url(#g)" d="M59.142 73V48.714a8.311 8.311 0 0 0-8.312 8.311v7.664A8.311 8.311 0 0 0 59.142 73Z"/><path fill="url(#h)" d="M69.115 64.689v-7.664a8.311 8.311 0 0 0-8.311-8.311V73a8.311 8.311 0 0 0 8.311-8.311Z"/><path fill="url(#i)" d="M64.944 47.066v-1.978c0-3.296-2.215-4.614-4.944-4.614-2.73 0-4.944 1.318-4.944 4.614v1.978h9.888Z"/><path stroke="#EADDD5" stroke-width="2" d="m39 37 42 45"/><defs><radialGradient id="a" cx="0" cy="0" r="1" gradientTransform="matrix(.00225 36797000000000 -160.531 0 51.319 -54389200000000)" gradientUnits="userSpaceOnUse"><stop stop-color="#EF222A"/><stop offset=".133" stop-color="#EE531F"/><stop offset=".333" stop-color="#ED391C"/><stop offset="1" stop-color="#ED391C" stop-opacity="0"/></radialGradient><radialGradient id="b" cx="0" cy="0" r="1" gradientTransform="matrix(.00225 -36797000000000 160.531 0 4754930 54389200000000)" gradientUnits="userSpaceOnUse"><stop stop-color="#EF222A"/><stop offset=".133" stop-color="#EE531F"/><stop offset=".333" stop-color="#ED391C"/><stop offset="1" stop-color="#ED391C" stop-opacity="0"/></radialGradient><radialGradient id="c" cx="0" cy="0" r="1" gradientTransform="rotate(-165.233 31.056 33.366) scale(19.4057 41.5098)" gradientUnits="userSpaceOnUse"><stop stop-color="#EF222A"/><stop offset=".133" stop-color="#EE531F"/><stop offset=".333" stop-color="#ED391C"/><stop offset="1" stop-color="#ED391C" stop-opacity="0"/></radialGradient><radialGradient id="d" cx="0" cy="0" r="1" gradientTransform="rotate(-14.767 317.812 -225.903) scale(19.4057 41.5098)" gradientUnits="userSpaceOnUse"><stop stop-color="#EF222A"/><stop offset=".133" stop-color="#EE531F"/><stop offset=".333" stop-color="#ED391C"/><stop offset="1" stop-color="#ED391C" stop-opacity="0"/></radialGradient><radialGradient id="e" cx="0" cy="0" r="1" gradientTransform="matrix(-28.86133 16.95994 -37.41054 -63.66286 55.672 44.238)" gradientUnits="userSpaceOnUse"><stop stop-color="#EF222A"/><stop offset=".133" stop-color="#EE531F"/><stop offset=".333" stop-color="#ED391C"/><stop offset="1" stop-color="#ED391C" stop-opacity="0"/></radialGradient><radialGradient id="f" cx="0" cy="0" r="1" gradientTransform="matrix(28.8613 16.95999 -37.41066 63.6628 65.131 44.238)" gradientUnits="userSpaceOnUse"><stop stop-color="#EF222A"/><stop offset=".133" stop-color="#EE531F"/><stop offset=".333" stop-color="#ED391C"/><stop offset="1" stop-color="#ED391C" stop-opacity="0"/></radialGradient><radialGradient id="i" cx="0" cy="0" r="1" gradientTransform="rotate(144.616 25.887 30.52) scale(21.4358 46.7087)" gradientUnits="userSpaceOnUse"><stop stop-color="#EF222A"/><stop offset=".133" stop-color="#EE531F"/><stop offset=".467" stop-color="#ED391C"/><stop offset=".645" stop-color="#ED391C" stop-opacity=".859"/><stop offset="1" stop-color="#ED391C" stop-opacity="0"/></radialGradient><linearGradient id="g" x1="59.834" x2="39.269" y1="73" y2="43.645" gradientUnits="userSpaceOnUse"><stop offset="0" stop-color="#EF222A"/><stop offset=".528" stop-color="#FF3F00"/><stop offset="1" stop-color="#EE531F" stop-opacity="0"/></linearGradient><linearGradient id="h" x1="69.808" x2="49.242" y1="73" y2="43.645" gradientUnits="userSpaceOnUse"><stop offset="0" stop-color="#EF222A"/><stop offset=".545" stop-color="#FF3F00"/><stop offset="1" stop-color="#EE531F" stop-opacity="0"/></linearGradient></defs></svg>