<svg xmlns="http://www.w3.org/2000/svg" width="121" height="120" fill="none"><path d="M.667 0h120v120h-120z"/><rect width="29.063" height="9.375" x="24.104" y="68.438" stroke="#CAB2AA" stroke-width="1.875" rx=".938"/><rect width="3.75" height="3.75" x="46.135" y="71.25" fill="#CAB2AA" rx=".469"/><rect width="3.75" height="3.75" x="40.041" y="71.25" fill="#CAB2AA" rx=".469"/><rect width="29.063" height="9.375" x="24.104" y="55.313" stroke="#CAB2AA" stroke-width="1.875" rx=".938"/><rect width="3.75" height="3.75" x="46.135" y="58.125" fill="#CAB2AA" rx=".469"/><rect width="3.75" height="3.75" x="40.041" y="58.125" fill="#CAB2AA" rx=".469"/><rect width="29.063" height="9.375" x="24.104" y="42.188" stroke="#CAB2AA" stroke-width="1.875" rx=".938"/><rect width="3.75" height="3.75" x="46.135" y="45" fill="#CAB2AA" rx=".469"/><rect width="3.75" height="3.75" x="40.041" y="45" fill="#CAB2AA" rx=".469"/><rect width="29.063" height="9.375" x="68.166" y="68.438" fill="#FF5718" stroke="#FF5718" stroke-linejoin="round" stroke-width="1.875" rx=".938"/><rect width="3.75" height="3.75" x="90.198" y="71.25" fill="#fff" rx=".469"/><rect width="3.75" height="3.75" x="85.041" y="71.25" fill="#fff" rx=".469"/><rect width="29.063" height="9.375" x="68.166" y="55.313" fill="#FF5718" stroke="#FF5718" stroke-linejoin="round" stroke-width="1.875" rx=".938"/><rect width="3.75" height="3.75" x="90.198" y="58.125" fill="#fff" rx=".469"/><rect width="3.75" height="3.75" x="85.041" y="58.125" fill="#fff" rx=".469"/><rect width="29.063" height="9.375" x="68.166" y="42.188" fill="#FF5718" stroke="#FF5718" stroke-linejoin="round" stroke-width="1.875" rx=".938"/><rect width="3.75" height="3.75" x="90.198" y="45" fill="#fff" rx=".469"/><rect width="3.75" height="3.75" x="85.041" y="45" fill="#fff" rx=".469"/><path fill="#CAB2AA" d="M81.566 83.712a.937.937 0 0 1 1.326 0l5.966 5.966a.937.937 0 0 1-1.326 1.326l-5.303-5.303-5.303 5.303a.937.937 0 0 1-1.326-1.326l5.966-5.966Zm-42.462.663V97.5h-1.875V84.375h1.875Zm.938 14.063h40.312v1.874H40.041v-1.874Zm41.25-.938V84.375h1.874V97.5h-1.874Zm-.938.938c.518 0 .938-.42.938-.938h1.874a2.812 2.812 0 0 1-2.812 2.812v-1.874Zm-41.25-.938c0 .518.42.938.938.938v1.874a2.812 2.812 0 0 1-2.813-2.812h1.875Z"/></svg>