<svg xmlns="http://www.w3.org/2000/svg" width="121" height="120" fill="none"><path stroke="#CAB2AA" stroke-width="2" d="M76.512 48.183h4.873c11.134 0 20.158 9.185 20.158 20.52v5.363c0 4.759-3.797 8.623-8.471 8.623H64.826c-4.675 0-8.471-3.864-8.471-8.623v-5.364c0-11.334 9.023-20.52 20.157-20.52Z"/><path stroke="#CAB2AA" stroke-width="2" d="M78.538 48.183c5.899 0 10.68-4.966 10.68-11.092 0-6.125-4.781-11.091-10.68-11.091-5.9 0-10.681 4.966-10.681 11.091 0 6.126 4.782 11.092 10.68 11.092Zm-37.503 0h4.873c11.134 0 20.158 9.185 20.158 20.52v5.363c0 4.759-3.797 8.623-8.471 8.623H29.349c-4.675 0-8.472-3.864-8.472-8.623v-5.364c0-11.334 9.024-20.52 20.158-20.52Z"/><path stroke="#CAB2AA" stroke-width="2" d="M43.06 48.183c5.9 0 10.682-4.966 10.682-11.092C53.742 30.966 48.96 26 43.06 26s-10.681 4.966-10.681 11.091c0 6.126 4.782 11.092 10.68 11.092Z"/><path fill="url(#a)" d="M58.44 64.474h4.873c11.134 0 20.158 9.185 20.158 20.519v5.364c0 4.759-3.797 8.623-8.471 8.623H46.753c-4.674 0-8.47-3.864-8.47-8.623v-5.364c0-11.334 9.023-20.52 20.157-20.52Z"/><path fill="url(#b)" d="M60.466 64.474c5.899 0 10.68-4.966 10.68-11.092 0-6.125-4.781-11.091-10.68-11.091-5.9 0-10.681 4.966-10.681 11.091 0 6.126 4.782 11.092 10.68 11.092Z"/><defs><linearGradient id="a" x1="60.876" x2="60.876" y1="64.474" y2="98.98" gradientUnits="userSpaceOnUse"><stop stop-color="#FF5900"/><stop offset="1" stop-color="#FF3F00"/></linearGradient><linearGradient id="b" x1="60.466" x2="60.466" y1="42.291" y2="64.474" gradientUnits="userSpaceOnUse"><stop stop-color="#FF5900"/><stop offset="1" stop-color="#FF3F00"/></linearGradient></defs></svg>